<?xml version="1.0" encoding="UTF-8"?>
<svg width="125px" height="120px" viewBox="0 0 125 120" version="1.1" xmlns="http://www.w3.org/2000/svg" xmlns:xlink="http://www.w3.org/1999/xlink">
    <!-- Generator: Sketch 50.2 (55047) - http://www.bohemiancoding.com/sketch -->
    <title>empty_state_search</title>
    <desc>Created with Sketch.</desc>
    <defs></defs>
    <g id="All-final-pages" stroke="none" stroke-width="1" fill="none" fill-rule="evenodd">
        <g id="Search_result_not_found" transform="translate(-883.000000, -400.000000)" fill="#000000" fill-rule="nonzero">
            <g id="Group-13" transform="translate(566.000000, 400.000000)">
                <g id="Group-11">
                    <g id="Group-12" transform="translate(206.000000, 0.000000)">
                        <g id="Group-10">
                            <g id="empty_state_search" transform="translate(111.000000, 0.000000)">
                                <path d="M122.915734,109.854286 L90.1113418,79.96 C96.4494974,71.5942857 100.256971,61.2142857 100.256971,49.9428571 C100.254108,22.4028571 77.8100524,0 50.21875,0 C22.6274476,0 0.180528846,22.4028571 0.180528846,49.94 C0.180528846,77.4742857 22.6303103,99.88 50.21875,99.88 C62.3081949,99.88 73.4042614,95.5771429 82.0641171,88.4285714 L115.03455,118.474286 C116.15389,119.497143 117.562369,120 118.973711,120 C120.559681,120 122.1342,119.357143 123.290756,118.097143 C125.466455,115.72 125.300415,112.031429 122.915734,109.854286 Z M50.21875,88.2142857 C29.0715253,88.2142857 11.8691871,71.0428571 11.8691871,49.9428571 C11.8691871,28.8371429 29.0743881,11.6685714 50.21875,11.6685714 C71.3602491,11.6685714 88.5654502,28.84 88.5654502,49.9428571 C88.5654502,71.0428571 71.3631119,88.2142857 50.21875,88.2142857 Z" id="Shape"></path>
                                <path d="M24.1504371,33.5742857 C47.9657561,20.9085714 79.4962194,35.1514286 79.4962194,35.1514286 C48.1861888,6.11142857 24.1504371,33.5742857 24.1504371,33.5742857 Z" id="Shape"></path>
                            </g>
                        </g>
                    </g>
                </g>
            </g>
        </g>
    </g>
</svg>