<?xml version="1.0" encoding="UTF-8"?>
<svg width="24px" height="24px" viewBox="0 0 24 24" version="1.1" xmlns="http://www.w3.org/2000/svg" xmlns:xlink="http://www.w3.org/1999/xlink">
    <!-- Generator: Sketch 50.2 (55047) - http://www.bohemiancoding.com/sketch -->
    <title>facebook</title>
    <desc>Created with Sketch.</desc>
    <defs></defs>
    <g id="Symbols" stroke="none" stroke-width="1" fill="none" fill-rule="evenodd">
        <g id="assets/images/social/" fill="#000000" fill-rule="nonzero">
            <path d="M22.5749508,0.000393442623 C23.3036066,0.000393442623 23.8941639,0.590163934 23.8945574,1.31842623 L23.8945574,22.5753443 C23.8945574,23.3024262 23.3032131,23.8937705 22.5745574,23.8937705 L12.7624918,23.8949508 L1.31881967,23.8949508 C0.59095082,23.8949508 0,23.3043934 0,22.5753443 L0,1.31921311 C0,0.590163934 0.59095082,0.000393442623 1.31881967,0.000393442623 L22.5749508,0.000393442623 Z M10.7736441,18 L12.8946661,17.9993018 L12.8946661,12.5255033 L14.6633797,12.5255033 L14.9294039,10.3923044 L12.8948902,10.3923044 L12.8948902,9.03060393 C12.8948902,8.41317249 13.0593904,7.99216477 13.912147,7.99216477 L15,7.99169931 L15,6.08378263 C14.8119677,6.05841511 14.1671896,6 13.4152846,6 C11.8469296,6 10.7736441,6.99445328 10.7736441,8.81975098 L10.7736441,10.3930026 L9,10.3930026 L9,12.5264342 L10.7736441,12.5264342 L10.7736441,18 Z" id="facebook"></path>
        </g>
    </g>
</svg>