<?xml version="1.0" encoding="UTF-8"?>
<svg width="24px" height="24px" viewBox="0 0 24 24" version="1.1" xmlns="http://www.w3.org/2000/svg" xmlns:xlink="http://www.w3.org/1999/xlink">
    <!-- Generator: Sketch 50.2 (55047) - http://www.bohemiancoding.com/sketch -->
    <title>gplus</title>
    <desc>Created with Sketch.</desc>
    <defs></defs>
    <g id="Symbols" stroke="none" stroke-width="1" fill="none" fill-rule="evenodd">
        <g id="assets/images/social/" transform="translate(-132.000000, 0.000000)" fill="#000000">
            <path d="M133.5,0 L154.5,0 C155.328427,-1.52179594e-16 156,0.671572875 156,1.5 L156,22.5 C156,23.3284271 155.328427,24 154.5,24 L133.5,24 C132.671573,24 132,23.3284271 132,22.5 L132,1.5 C132,0.671572875 132.671573,1.52179594e-16 133.5,0 Z M145.94375,12.2300613 L145.89375,12.0153374 L141,12.0153374 L141,13.9815951 L143.834375,13.9815951 C143.540625,15.3619632 142.321875,15.9325153 141.20625,15.9325153 C140.39375,15.9325153 139.6375,15.6932515 139.071875,15.1564417 C138.490625,14.601227 138.16875,13.8343558 138.16875,12.9969325 C138.16875,12.1656442 138.475,11.4079755 139.03125,10.8619632 C139.584375,10.3190184 140.34375,10.0828221 141.178125,10.0828221 C142.13125,10.0828221 142.7375,10.506135 142.99375,10.7300613 L144.49375,9.26687117 C144.071875,8.90797546 142.921875,8 141.128125,8 C139.74375,8 138.41875,8.51533742 137.45,9.46625767 C136.496875,10.4018405 136,11.7484663 136,13 C136,14.2515337 136.46875,15.5337423 137.39375,16.4754601 C138.384375,17.4785276 139.7875,18 141.234375,18 C142.55,18 143.79375,17.493865 144.68125,16.5797546 C145.55625,15.6779141 146.00625,14.4294479 146.00625,13.1226994 C146.003125,12.5705521 145.946875,12.2423313 145.94375,12.2300613 Z M152,12.0184049 L150.21875,12.0184049 L150.21875,10.2699387 L148.9375,10.2699387 L148.9375,12.0184049 L147.15625,12.0184049 L147.15625,13.2760736 L148.9375,13.2760736 L148.9375,15.0245399 L150.21875,15.0245399 L150.21875,13.2760736 L152,13.2760736 L152,12.0184049 Z" id="gplus"></path>
        </g>
    </g>
</svg>