<?xml version="1.0" encoding="UTF-8"?>
<svg width="18px" height="16px" viewBox="0 0 18 16" version="1.1" xmlns="http://www.w3.org/2000/svg" xmlns:xlink="http://www.w3.org/1999/xlink">
    <!-- Generator: Sketch 50.2 (55047) - http://www.bohemiancoding.com/sketch -->
    <title>Shape</title>
    <desc>Created with Sketch.</desc>
    <defs></defs>
    <g id="Home-page" stroke="none" stroke-width="1" fill="none" fill-rule="evenodd">
        <g id="Home" transform="translate(-831.000000, -47.000000)" fill="#000000" fill-rule="nonzero">
            <g id="Group-32" transform="translate(120.000000, 30.000000)">
                <g id="Stacked-Group-3" transform="translate(711.000000, 17.000000)">
                    <g id="Group-24">
                        <path d="M11.4495086,15.1810035 L15.0564767,15.1810035 L15.0564767,7.91798925 C15.0564767,7.72755326 15.2145123,7.5731839 15.4094712,7.5731839 L16.7245168,7.5731839 L8.99997404,0.807930645 L1.27546661,7.5731839 L2.59047691,7.5731839 C2.78543576,7.5731839 2.94347138,7.72755326 2.94347138,7.91798925 L2.94347138,15.1810035 L6.55043951,15.1810035 L6.55043951,9.91130895 C6.55043951,9.72087296 6.70847513,9.56650361 6.90343398,9.56650361 L11.0965141,9.56650361 C11.2914377,9.56650361 11.4495086,9.72087296 11.4495086,9.91130895 L11.4495086,15.1810035 Z M15.4094712,15.8706142 L11.0965141,15.8706142 C10.9015906,15.8706142 10.7435196,15.7162449 10.7435196,15.5258089 L10.7435196,10.2561143 L7.25642845,10.2561143 L7.25642845,15.5258089 C7.25642845,15.7162449 7.09835753,15.8706142 6.90343398,15.8706142 L2.59047691,15.8706142 C2.39555336,15.8706142 2.23748244,15.7162449 2.23748244,15.5258089 L2.23748244,8.26279459 L0.35298616,8.26279459 C0.20674055,8.26279459 0.0756031041,8.17466236 0.0233246228,8.04122269 C-0.0289538584,7.90778303 0.00846355551,7.75665483 0.11736235,7.66128168 L8.76435023,0.0880805267 C8.89845282,-0.0293946539 9.10156585,-0.0293256922 9.23563314,0.0880805267 L17.882621,7.66128168 C17.9915198,7.75665483 18.0289372,7.90778303 17.9766588,8.04122269 C17.9243803,8.17466236 17.7932428,8.26279459 17.6469619,8.26279459 L15.7624656,8.26279459 L15.7624656,15.5258089 C15.7624656,15.7162449 15.6043947,15.8706142 15.4094712,15.8706142 Z" id="Shape"></path>
                    </g>
                </g>
            </g>
        </g>
    </g>
</svg>