<?xml version="1.0" encoding="UTF-8"?>
<svg width="24px" height="24px" viewBox="0 0 24 24" version="1.1" xmlns="http://www.w3.org/2000/svg" xmlns:xlink="http://www.w3.org/1999/xlink">
    <!-- Generator: Sketch 50.2 (55047) - http://www.bohemiancoding.com/sketch -->
    <title>instagram</title>
    <desc>Created with Sketch.</desc>
    <defs></defs>
    <g id="Symbols" stroke="none" stroke-width="1" fill="none" fill-rule="evenodd">
        <g id="assets/images/social/" transform="translate(-176.000000, 0.000000)" fill="#000000">
            <path d="M177.5,0 L198.5,0 C199.328427,-1.52179594e-16 200,0.671572875 200,1.5 L200,22.5 C200,23.3284271 199.328427,24 198.5,24 L177.5,24 C176.671573,24 176,23.3284271 176,22.5 L176,1.5 C176,0.671572875 176.671573,1.52179594e-16 177.5,0 Z M190.5,7 C191.1625,7 191.790625,7.2625 192.265625,7.734375 C192.740625,8.20625 193,8.8375 193,9.5 L193,14.5 C193,15.1625 192.7375,15.790625 192.265625,16.265625 C191.79375,16.740625 191.1625,17 190.5,17 L185.5,17 C184.8375,17 184.209375,16.7375 183.734375,16.265625 C183.259375,15.79375 183,15.1625 183,14.5 L183,9.5 C183,8.8375 183.2625,8.209375 183.734375,7.734375 C184.20625,7.259375 184.8375,7 185.5,7 L190.5,7 Z M190.5,6 L185.5,6 C183.575,6 182,7.575 182,9.5 L182,14.5 C182,16.425 183.575,18 185.5,18 L190.5,18 C192.425,18 194,16.425 194,14.5 L194,9.5 C194,7.575 192.425,6 190.5,6 Z M191.25,9.5 C190.834375,9.5 190.5,9.165625 190.5,8.75 C190.5,8.334375 190.834375,8 191.25,8 C191.6625,8 192,8.334375 192,8.75 C192,9.165625 191.6625,9.5 191.25,9.5 Z M188,10 C189.103125,10 190,10.896875 190,12 C190,13.103125 189.103125,14 188,14 C186.896875,14 186,13.103125 186,12 C186,10.896875 186.896875,10 188,10 Z M188,9 C186.34375,9 185,10.34375 185,12 C185,13.65625 186.34375,15 188,15 C189.65625,15 191,13.65625 191,12 C191,10.34375 189.65625,9 188,9 Z" id="instagram"></path>
        </g>
    </g>
</svg>