<?xml version="1.0" encoding="UTF-8"?>
<svg width="34px" height="24px" viewBox="0 0 34 24" version="1.1" xmlns="http://www.w3.org/2000/svg" xmlns:xlink="http://www.w3.org/1999/xlink">
    <!-- Generator: Sketch 50.2 (55047) - http://www.bohemiancoding.com/sketch -->
    <title>Lessons</title>
    <desc>Created with Sketch.</desc>
    <defs></defs>
    <g id="All-final-pages" stroke="none" stroke-width="1" fill="none" fill-rule="evenodd">
        <g id="Attempt-Quiz" transform="translate(-338.000000, -268.000000)" fill="#000000" fill-rule="nonzero">
            <g id="Group-10" transform="translate(120.000000, 243.000000)">
                <g id="Stacked-Group">
                    <g id="Group-3">
                        <g id="Group-45" transform="translate(20.000000, 20.000000)">
                            <g id="Group-46">
                                <g id="lessons" transform="translate(198.000000, 5.000000)">
                                    <path d="M33.8368,20.0250667 C33.8368,19.5834667 33.4852923,19.2250667 33.0521846,19.2250667 L32.0714154,19.2250667 L32.0714154,3.71733333 C32.0714154,1.9264 30.6423692,0.469333333 28.8848308,0.469333333 L5.11464615,0.469333333 C3.35815385,0.469333333 1.92910769,1.9264 1.92910769,3.71733333 L1.92910769,19.2250667 L0.948338462,19.2250667 C0.514707692,19.2250667 0.163723077,19.5834667 0.163723077,20.0250667 C0.163723077,20.0821333 0.17,20.1381333 0.181507692,20.192 C0.366153846,22.1306667 3.67984615,23.5312 5.11516923,23.5312 L28.8848308,23.5312 C30.3201538,23.5312 33.6348923,22.1306667 33.8195385,20.192 C33.8305231,20.1381333 33.8368,20.0821333 33.8368,20.0250667 Z M3.49833846,3.71733333 C3.49833846,2.80853333 4.22332308,2.06933333 5.11464615,2.06933333 L28.8843077,2.06933333 C29.7761538,2.06933333 30.5016615,2.80853333 30.5016615,3.71733333 L30.5016615,19.2250667 L28.7472615,19.2250667 L28.7472615,4.46933333 C28.7472615,4.0272 28.3957538,3.66933333 27.9626462,3.66933333 L6.03735385,3.66933333 C5.60372308,3.66933333 5.25273846,4.0272 5.25273846,4.46933333 L5.25273846,19.2250667 L3.49833846,19.2250667 L3.49833846,3.71733333 Z M6.82196923,19.2250667 L6.82196923,5.26933333 L27.1785538,5.26933333 L27.1785538,19.2250667 L6.82196923,19.2250667 Z M5.11464615,21.9306667 C4.34101538,21.9306667 3.1144,21.3850667 2.37006154,20.8250667 L31.6299385,20.8250667 C30.8856,21.3850667 29.6584615,21.9306667 28.8848308,21.9306667 L5.11464615,21.9306667 Z M20.9631333,12.2941277 C20.9554413,12.3193191 20.9445444,12.3438298 20.9362115,12.3669787 C20.9227506,12.4057872 20.9092897,12.443234 20.8907008,12.48 C20.8887778,12.484766 20.8881368,12.4895319 20.8855728,12.493617 C20.8804449,12.5038298 20.8727529,12.5099574 20.866984,12.5201702 C20.8336522,12.5794043 20.7945515,12.635234 20.7496818,12.6869787 C20.7342979,12.7046809 20.718914,12.722383 20.7028891,12.7387234 C20.6580195,12.7843404 20.6086628,12.8238298 20.5548192,12.8605957 C20.5419993,12.8694468 20.5304614,12.8796596 20.5170005,12.8878298 C20.5137955,12.8898723 20.5112315,12.8925957 20.5080265,12.8946383 L15.4255738,15.8733617 C15.4146769,15.8794894 15.403139,15.8815319 15.3916011,15.8876596 C15.3435264,15.9135319 15.2922468,15.9346383 15.2390442,15.9516596 C15.2191733,15.9577872 15.1993024,15.9659574 15.1787906,15.9714043 C15.1102041,15.9877447 15.0390536,15.9993191 14.9659801,15.9993191 C14.9646981,15.9993191 14.9634161,16 14.9621341,16 C14.9614931,16 14.9614931,16 14.9614931,16 C14.8826507,16 14.8070132,15.9870638 14.7339398,15.968 C14.7147099,15.963234 14.69548,15.9557447 14.6762502,15.9489362 C14.6204836,15.9298723 14.5672809,15.9074043 14.5166423,15.8788085 C14.4967715,15.867234 14.4775416,15.8577021 14.4589527,15.8454468 C14.3948532,15.803234 14.3339586,15.7555745 14.280756,15.6990638 C14.276269,15.6942979 14.2724231,15.6874894 14.2672951,15.6820426 C14.2179384,15.6255319 14.1756327,15.5642553 14.138455,15.4975319 C14.1326861,15.488 14.1249941,15.4818723 14.1198661,15.4716596 C14.1121742,15.4573617 14.1083282,15.4410213 14.1012773,15.4260426 C14.0858934,15.3940426 14.0724325,15.3606809 14.0608946,15.3259574 C14.0499976,15.2953191 14.0410237,15.264 14.0333318,15.2326809 C14.0256398,15.2006809 14.0192299,15.1693617 14.0147429,15.1366809 C14.0096149,15.0999149 14.005769,15.0638298 14.004487,15.0270638 C14.003846,15.0114043 14,14.9950638 14,14.9787234 L14,9.0212766 C14,9.00425532 14.003846,8.98859574 14.004487,8.97225532 C14.005769,8.93548936 14.0096149,8.89940426 14.0147429,8.8626383 C14.0198709,8.82995745 14.0256398,8.79795745 14.0333318,8.7666383 C14.0410237,8.73531915 14.0499976,8.704 14.0602536,8.6733617 C14.0717915,8.6386383 14.0852524,8.6052766 14.1006363,8.57259574 C14.1070462,8.55761702 14.1108922,8.54195745 14.1185842,8.52765957 C14.1256351,8.51540426 14.134609,8.50519149 14.14166,8.49293617 C14.1596079,8.46161702 14.1788377,8.43165957 14.1999906,8.40306383 C14.2179384,8.37787234 14.2365273,8.3533617 14.2563982,8.33021277 C14.277551,8.30502128 14.3006269,8.28255319 14.3249847,8.26008511 C14.3474195,8.23897872 14.3698544,8.21787234 14.3942122,8.19880851 C14.420493,8.17838298 14.4480558,8.16068085 14.4762596,8.14297872 C14.5006174,8.128 14.5249753,8.11302128 14.5512561,8.10008511 C14.5813828,8.08510638 14.6127916,8.07285106 14.6448414,8.06059574 C14.6717632,8.05038298 14.698044,8.04153191 14.7256068,8.03404255 C14.7570156,8.02587234 14.7897064,8.01974468 14.8223971,8.01497872 C14.8531649,8.01021277 14.8845737,8.00612766 14.9159825,8.00476596 C14.9307254,8.00408511 14.9448273,8 14.9595701,8 C14.976877,8 14.9929019,8.00476596 15.0095678,8.00544681 C15.0416176,8.00680851 15.0730263,8.01021277 15.1050761,8.01565957 C15.1377669,8.02110638 15.1698166,8.02791489 15.2012254,8.03676596 C15.2300702,8.04493617 15.257633,8.05378723 15.2851958,8.06468085 C15.3185276,8.07761702 15.3505774,8.09191489 15.3819861,8.10825532 C15.395447,8.11506383 15.4101899,8.11914894 15.4236508,8.12731915 L20.5061035,11.1060426 C20.5266154,11.1189787 20.5439223,11.1346383 20.5637931,11.1482553 C20.5932789,11.1686809 20.6234057,11.1884255 20.6509685,11.2122553 C20.6759673,11.2347234 20.6971202,11.259234 20.719555,11.2830638 C20.7419899,11.3062128 20.7637837,11.328 20.7836546,11.3531915 C20.8080124,11.3845106 20.8278832,11.4185532 20.8483951,11.4525957 C20.859933,11.4716596 20.8733939,11.488 20.8842908,11.5077447 C20.8868548,11.5125106 20.8874958,11.5172766 20.8894188,11.5213617 C20.9080077,11.5574468 20.9214686,11.5955745 20.9349295,11.634383 C20.9445444,11.6588936 20.9554413,11.6834043 20.9631333,11.7085957 C20.9721072,11.7412766 20.9759532,11.776 20.9823631,11.8100426 C20.9874911,11.8406809 20.995824,11.872 20.998388,11.9033191 C21.001593,11.9353191 20.999029,11.9686809 20.999029,12.0013617 C20.999029,12.0340426 21.001593,12.0674043 20.998388,12.0994043 C20.995824,12.1307234 20.9881321,12.1620426 20.9823631,12.1926809 C20.9765942,12.2260426 20.9727482,12.260766 20.9631333,12.2941277 Z M15.9210633,10.7526809 L15.9210633,13.2500426 L18.0517321,12.0013617 L15.9210633,10.7526809 Z" id="Lessons"></path>
                                </g>
                            </g>
                        </g>
                    </g>
                </g>
            </g>
        </g>
    </g>
</svg>