<?xml version="1.0" encoding="UTF-8"?>
<svg width="24px" height="32px" viewBox="0 0 24 32" version="1.1" xmlns="http://www.w3.org/2000/svg" xmlns:xlink="http://www.w3.org/1999/xlink">
    <!-- Generator: Sketch 50.2 (55047) - http://www.bohemiancoding.com/sketch -->
    <title>lock</title>
    <desc>Created with Sketch.</desc>
    <defs></defs>
    <g id="Symbols" stroke="none" stroke-width="1" fill="none" fill-rule="evenodd">
        <g id="icon/-lock" transform="translate(-10.000000, -6.000000)" fill="#000000" fill-rule="nonzero">
            <g id="md-lock" transform="translate(10.000000, 6.000000)">
                <path d="M21,10.6666667 L19.5,10.6666667 L19.5,7.61904762 C19.5,3.42857143 16.125,0 12,0 C7.875,0 4.5,3.42857143 4.5,7.61904762 L4.5,10.6666667 L3,10.6666667 C1.34985,10.6666667 0,12.0379429 0,13.7142857 L0,28.952381 C0,30.6287238 1.34985,32 3,32 L21,32 C22.65015,32 24,30.6287238 24,28.952381 L24,13.7142857 C24,12.0379429 22.65015,10.6666667 21,10.6666667 Z M12,24.5333333 C10.34985,24.5333333 9,23.1620571 9,21.4857143 C9,19.8093714 10.34985,18.4380952 12,18.4380952 C13.65015,18.4380952 15,19.8093714 15,21.4857143 C15,23.1620571 13.65015,24.5333333 12,24.5333333 Z M16.65015,10.6666667 L7.34985,10.6666667 L7.34985,7.61904762 C7.34985,5.02826667 9.450075,2.89508571 12,2.89508571 C14.5503,2.89508571 16.65015,5.02826667 16.65015,7.61904762 L16.65015,10.6666667 Z" id="lock"></path>
            </g>
        </g>
    </g>
</svg>