<?xml version="1.0" encoding="UTF-8"?>
<svg width="15px" height="16px" viewBox="0 0 15 16" version="1.1" xmlns="http://www.w3.org/2000/svg" xmlns:xlink="http://www.w3.org/1999/xlink">
    <!-- Generator: Sketch 50.2 (55047) - http://www.bohemiancoding.com/sketch -->
    <title>browse manual</title>
    <desc>Created with Sketch.</desc>
    <defs></defs>
    <g id="Home-page" stroke="none" stroke-width="1" fill="none" fill-rule="evenodd">
        <g id="Home" transform="translate(-912.000000, -48.000000)" fill="#000000" fill-rule="nonzero">
            <g id="Group-32" transform="translate(120.000000, 30.000000)">
                <g id="Stacked-Group-3" transform="translate(711.000000, 17.000000)">
                    <g id="Group-23" transform="translate(81.000000, 0.000000)">
                        <g id="browse-manual" transform="translate(0.000000, 1.000000)">
                            <path d="M2.1703163,10.4576098 L6.8296837,10.4576098 C6.9270073,10.4576098 7,10.3595506 7,10.2288049 C7,10.0980592 6.9270073,10 6.8296837,10 L2.1703163,10 C2.0729927,10 2,10.0980592 2,10.2288049 C2,10.3595506 2.08515815,10.4576098 2.1703163,10.4576098 Z" id="Shape"></path>
                            <path d="M2.18421053,6.45760981 L8.81578947,6.45760981 C8.92105263,6.45760981 9,6.35955056 9,6.2288049 C9,6.09805924 8.92105263,6 8.81578947,6 L2.18421053,6 C2.07894737,6 2,6.09805924 2,6.2288049 C2,6.34320735 2.09210526,6.45760981 2.18421053,6.45760981 Z" id="Shape"></path>
                            <path d="M2.15625,8.45760981 L6.84375,8.45760981 C6.93303571,8.45760981 7,8.35955056 7,8.2288049 C7,8.09805924 6.93303571,8 6.84375,8 L2.15625,8 C2.06696429,8 2,8.09805924 2,8.2288049 C2,8.35955056 2.078125,8.45760981 2.15625,8.45760981 Z" id="Shape"></path>
                            <path d="M4.86792453,12.4576098 C4.94339623,12.4576098 5,12.3595506 5,12.2288049 C5,12.0980592 4.94339623,12 4.86792453,12 L2.13207547,12 C2.05660377,12 2,12.0980592 2,12.2288049 C2,12.3595506 2.05660377,12.4576098 2.13207547,12.4576098 L4.86792453,12.4576098 Z" id="Shape"></path>
                            <path d="M14.9807167,9.36465781 L14.9807167,9.31562819 C14.9644156,9.15219612 14.9318134,8.92339122 14.7688023,8.77630235 C14.6220924,8.61287028 14.3286725,8.61287028 14.1819625,8.77630235 L13.2364983,9.72420838 C13.1060895,9.85495403 13.0897884,9.87129724 12.9756806,9.87129724 L12.0302165,9.87129724 C12.0302165,9.85495403 12.0139154,9.83861083 12.0139154,9.82226762 C11.9813131,9.67517875 11.9487109,9.52808989 11.9324098,9.36465781 L11.9324098,9.23391216 C11.9487109,9.18488253 11.9976142,9.13585291 12.0954209,9.02145046 L13.3669072,7.74668029 C13.4484127,7.66496425 13.4810149,7.56690501 13.4810149,7.45250255 C13.4810149,7.32175689 13.4158105,7.17466803 13.3180039,7.09295199 C13.187595,6.97854954 13.0408851,6.94586313 12.9104762,6.92951992 C12.877874,6.92951992 12.8615729,6.91317671 12.8289707,6.91317671 C12.5192496,6.84780388 12.2258297,6.83146067 11.9324098,6.86414709 L11.9324098,4.26557712 L11.9324098,3.1215526 L8.54177971,0 L0.733549784,0 C0.326022126,0 0,0.326864147 0,0.735444331 L0,4.24923391 L0,10.0837589 L0,13.7446374 C0,14.1532176 0.326022126,14.4800817 0.733549784,14.4800817 L5.85209717,14.4800817 C5.85209717,14.5127681 5.83579606,14.5291113 5.83579606,14.5617978 C5.83579606,14.6925434 5.88469938,14.8232891 5.98250602,14.9213483 L6.91166908,15.8529111 C7.00947572,15.9509704 7.13988457,16 7.27029342,16 C7.40070227,16 7.53111112,15.9509704 7.62891776,15.8529111 L8.99821069,14.4800817 L11.1825589,14.4800817 C11.5900866,14.4800817 11.9161087,14.1532176 11.9161087,13.7446374 L11.9161087,12.1593463 C12.0465176,12.1756895 12.1932275,12.1920327 12.3236364,12.1920327 C12.3236364,12.1920327 12.3236364,12.1920327 12.3236364,12.1920327 C13.0408851,12.1920327 13.7092304,11.9141982 14.2145647,11.4075587 C14.8014045,10.8192033 15.0785233,10.0674157 14.9807167,9.36465781 Z M12.3236364,11.7507661 C12.0302165,11.7507661 11.7367965,11.6853933 11.4596777,11.587334 L11.3129678,11.5219612 L7.30289563,15.5423902 C7.27029342,15.5587334 7.25399231,15.5750766 7.2376912,15.5423902 L6.30852814,14.6108274 C6.29222704,14.6108274 6.29222704,14.5944842 6.29222704,14.578141 C6.29222704,14.5617978 6.29222704,14.5617978 6.30852814,14.5454545 L10.3349014,10.5086823 L10.269697,10.3615935 C9.92737375,9.52808989 10.1066859,8.56384065 10.7424291,7.92645557 C11.1662578,7.50153218 11.6715921,7.27272727 12.2095286,7.27272727 C12.3725397,7.27272727 12.5355508,7.28907048 12.6985618,7.3381001 C12.731164,7.3381001 12.7637662,7.35444331 12.7800674,7.35444331 C12.8615729,7.37078652 12.9430784,7.38712972 12.9756806,7.41981614 C12.9756806,7.41981614 12.9756806,7.43615935 12.9756806,7.43615935 L11.7367965,8.69458631 C11.5900866,8.84167518 11.4107744,9.02145046 11.4433766,9.3319714 C11.4596777,9.54443309 11.49228,9.72420838 11.5411833,9.92032686 C11.6063877,10.165475 11.7693988,10.3125638 11.9813131,10.3125638 L12.9593795,10.3125638 C13.2691005,10.3125638 13.3995094,10.1818182 13.5462193,10.0347293 L14.4590813,9.1195097 C14.4916835,9.18488253 14.5079846,9.29928498 14.5242857,9.38100102 L14.5242857,9.43003064 C14.6057913,10.0020429 14.3775758,10.6067416 13.8885426,11.0970378 C13.4810149,11.5219612 12.9104762,11.7507661 12.3236364,11.7507661 Z M8.7699952,0.833503575 L11.19886,3.07252298 L9.06341511,3.07252298 C8.90040405,3.07252298 8.7862963,2.94177732 8.7862963,2.79468846 L8.7862963,0.833503575 L8.7699952,0.833503575 Z M0.44012987,13.7609806 L0.44012987,10.0837589 L0.44012987,4.26557712 L0.44012987,0.751787538 C0.44012987,0.588355465 0.570538721,0.473953013 0.717248678,0.473953013 L8.29726311,0.473953013 C8.29726311,0.473953013 8.29726311,0.490296221 8.29726311,0.490296221 L8.29726311,2.79468846 C8.29726311,3.20326864 8.62328524,3.53013279 9.0308129,3.53013279 L11.4270755,3.53013279 L11.4270755,4.26557712 L11.4270755,6.96220633 C11.0521501,7.09295199 10.7098268,7.30541369 10.4001058,7.61593463 C9.66655604,8.35137896 9.42203945,9.43003064 9.76436268,10.4106231 L6.16181819,14.0388151 L0.733549784,14.0388151 C0.570538721,14.0388151 0.44012987,13.9080695 0.44012987,13.7609806 Z M11.4596777,13.7609806 C11.4596777,13.9244127 11.3292689,14.0388151 11.1825589,14.0388151 L9.45464166,14.0388151 L11.4433766,12.0449438 C11.4596777,12.0449438 11.4596777,12.0449438 11.4759788,12.0449438 L11.4759788,13.7609806 L11.4596777,13.7609806 Z" id="Shape"></path>
                        </g>
                    </g>
                </g>
            </g>
        </g>
    </g>
</svg>