<?xml version="1.0" encoding="UTF-8"?>
<svg width="11px" height="11px" viewBox="0 0 11 11" version="1.1" xmlns="http://www.w3.org/2000/svg" xmlns:xlink="http://www.w3.org/1999/xlink">
    <!-- Generator: Sketch 50.2 (55047) - http://www.bohemiancoding.com/sketch -->
    <title>notes</title>
    <desc>Created with Sketch.</desc>
    <defs></defs>
    <g id="Symbols" stroke="none" stroke-width="1" fill="none" fill-rule="evenodd">
        <g id="icon/play" transform="translate(0.000000, -1.000000)" fill="#000000" fill-rule="nonzero">
            <g id="ios-list-box" transform="translate(0.000000, 1.000000)">
                <path d="M0,0.915347722 L0,10.0609113 C0,10.5647482 0.408872902,10.976259 0.915347722,10.976259 L10.0609113,10.976259 C10.5647482,10.976259 10.976259,10.5673861 10.976259,10.0609113 L10.976259,0.915347722 C10.976259,0.411510791 10.5673861,0 10.0609113,0 L0.915347722,0 C0.408872902,0 0,0.408872902 0,0.915347722 Z M2.35563549,8.75251799 C2.01007194,8.79736211 1.71990408,8.50719424 1.7647482,8.1616307 C1.79376499,7.92685851 1.98369305,7.73693046 2.21846523,7.70791367 C2.56402878,7.66306954 2.85419664,7.95323741 2.80935252,8.29880096 C2.78033573,8.53357314 2.59040767,8.7235012 2.35563549,8.75251799 Z M2.35563549,6.00911271 C2.01007194,6.05395683 1.71990408,5.76378897 1.7647482,5.41822542 C1.79376499,5.18345324 1.98369305,4.99352518 2.21846523,4.96450839 C2.56402878,4.91966427 2.85419664,5.20983213 2.80935252,5.55539568 C2.78033573,5.79016787 2.59040767,5.98009592 2.35563549,6.00911271 Z M2.35563549,3.26570743 C2.01007194,3.31055156 1.71990408,3.02038369 1.7647482,2.67482014 C1.79376499,2.44004796 1.98369305,2.2501199 2.21846523,2.22110312 C2.56402878,2.17625899 2.85419664,2.46642686 2.80935252,2.81199041 C2.78033573,3.04676259 2.59040767,3.23669065 2.35563549,3.26570743 Z M8.88177458,8.59952038 L4.13357314,8.59952038 C3.93045564,8.59952038 3.76426859,8.43333333 3.76426859,8.23021583 C3.76426859,8.02709832 3.93045564,7.86091127 4.13357314,7.86091127 L8.88177458,7.86091127 C9.08489209,7.86091127 9.25107914,8.02709832 9.25107914,8.23021583 C9.25107914,8.43333333 9.08489209,8.59952038 8.88177458,8.59952038 Z M8.88177458,5.85611511 L4.13357314,5.85611511 C3.93045564,5.85611511 3.76426859,5.68992806 3.76426859,5.48681055 C3.76426859,5.28369305 3.93045564,5.117506 4.13357314,5.117506 L8.88177458,5.117506 C9.08489209,5.117506 9.25107914,5.28369305 9.25107914,5.48681055 C9.25107914,5.68992806 9.08489209,5.85611511 8.88177458,5.85611511 Z M8.88177458,3.11270983 L4.13357314,3.11270983 C3.93045564,3.11270983 3.76426859,2.94652278 3.76426859,2.74340528 C3.76426859,2.54028777 3.93045564,2.37410072 4.13357314,2.37410072 L8.88177458,2.37410072 C9.08489209,2.37410072 9.25107914,2.54028777 9.25107914,2.74340528 C9.25107914,2.94652278 9.08489209,3.11270983 8.88177458,3.11270983 Z" id="notes"></path>
            </g>
        </g>
    </g>
</svg>