<?xml version="1.0" encoding="UTF-8"?>
<svg width="22px" height="6px" viewBox="0 0 22 6" version="1.1" xmlns="http://www.w3.org/2000/svg" xmlns:xlink="http://www.w3.org/1999/xlink">
    <!-- Generator: Sketch 50.2 (55047) - http://www.bohemiancoding.com/sketch -->
    <title>Steps</title>
    <desc>Created with Sketch.</desc>
    <defs></defs>
    <g id="All-final-pages" stroke="none" stroke-width="1" fill="none" fill-rule="evenodd">
        <g id="Tutorial_page" transform="translate(-135.000000, -1708.000000)" fill="#333333" fill-rule="nonzero">
            <g id="Stacked-Group-3" transform="translate(120.000000, 1482.000000)">
                <g id="Group-12-Copy-11">
                    <g id="Group-22" transform="translate(15.000000, 223.000000)">
                        <g id="Steps" transform="translate(0.000000, 3.000000)">
                            <path d="M2.96875,5.5 C1.60351914,5.5 0.5,4.37896469 0.5,3 C0.5,1.62103531 1.60351914,0.5 2.96875,0.5 C4.33398086,0.5 5.4375,1.62103531 5.4375,3 C5.4375,4.37896469 4.33398086,5.5 2.96875,5.5 Z M2.96875,4.5 C3.77814034,4.5 4.4375,3.83017431 4.4375,3 C4.4375,2.16982569 3.77814034,1.5 2.96875,1.5 C2.15935966,1.5 1.5,2.16982569 1.5,3 C1.5,3.83017431 2.15935966,4.5 2.96875,4.5 Z M18.96875,5.5 C17.6035191,5.5 16.5,4.37896469 16.5,3 C16.5,1.62103531 17.6035191,0.5 18.96875,0.5 C20.3339809,0.5 21.4375,1.62103531 21.4375,3 C21.4375,4.37896469 20.3339809,5.5 18.96875,5.5 Z M7,3 L15,3 L15,3.5 L7,3.5 L7,3 Z" id="Combined-Shape"></path>
                        </g>
                    </g>
                </g>
            </g>
        </g>
    </g>
</svg>