<?xml version="1.0" encoding="UTF-8"?>
<svg width="10px" height="9px" viewBox="0 0 10 9" version="1.1" xmlns="http://www.w3.org/2000/svg" xmlns:xlink="http://www.w3.org/1999/xlink">
    <!-- Generator: Sketch 50.2 (55047) - http://www.bohemiancoding.com/sketch -->
    <title>clear</title>
    <desc>Created with Sketch.</desc>
    <defs></defs>
    <g id="All-final-pages" stroke="none" stroke-width="1" fill="none" fill-rule="evenodd">
        <g id="Search" transform="translate(-636.000000, -208.000000)" fill="#000000" fill-rule="nonzero">
            <g id="Stacked-Group-2" transform="translate(506.000000, 201.000000)">
                <g id="Group-11">
                    <g id="Group-15">
                        <g id="clear" transform="translate(130.000000, 7.000000)">
                            <path d="M6.51802198,5.69956044 L5.4756044,4.65714286 L6.51802198,3.61472527 C6.64065934,3.49208791 6.64065934,3.29032967 6.51802198,3.16769231 C6.39538462,3.04505495 6.19362637,3.04505495 6.07098901,3.16769231 L5.02857143,4.21010989 L3.98615385,3.16769231 C3.86351648,3.04505495 3.67758242,3.02725275 3.53912088,3.16769231 C3.39868132,3.30813187 3.42043956,3.49604396 3.53912088,3.61472527 L4.58153846,4.65714286 L3.53912088,5.69956044 C3.40659341,5.83208791 3.41252747,6.02197802 3.53912088,6.14659341 C3.66571429,6.27318681 3.86351648,6.26923077 3.98615385,6.14659341 L5.02857143,5.10417582 L6.07098901,6.14659341 C6.19362637,6.26923077 6.39538462,6.26923077 6.51802198,6.14659341 C6.64263736,6.02395604 6.64263736,5.8221978 6.51802198,5.69956044 Z" id="Shape"></path>
                            <path d="M5.02857143,1.0967033 C5.98,1.0967033 6.87406593,1.46659341 7.54659341,2.13912088 C8.21912088,2.81164835 8.58901099,3.70571429 8.58901099,4.65714286 C8.58901099,5.60857143 8.21912088,6.50263736 7.54659341,7.17516484 C6.87406593,7.84769231 5.98,8.21758242 5.02857143,8.21758242 C4.07714286,8.21758242 3.18307692,7.84769231 2.51054945,7.17516484 C1.83802198,6.50263736 1.46813187,5.60857143 1.46813187,4.65714286 C1.46813187,3.70571429 1.83802198,2.81164835 2.51054945,2.13912088 C3.18307692,1.46659341 4.07714286,1.0967033 5.02857143,1.0967033 Z M5.02857143,0.542857143 C2.75582418,0.542857143 0.914285714,2.3843956 0.914285714,4.65714286 C0.914285714,6.92989011 2.75582418,8.77142857 5.02857143,8.77142857 C7.30131868,8.77142857 9.14285714,6.92989011 9.14285714,4.65714286 C9.14285714,2.3843956 7.30131868,0.542857143 5.02857143,0.542857143 Z" id="Shape"></path>
                        </g>
                    </g>
                </g>
            </g>
        </g>
    </g>
</svg>