<?xml version="1.0" encoding="UTF-8"?>
<svg width="24px" height="24px" viewBox="0 0 24 24" version="1.1" xmlns="http://www.w3.org/2000/svg" xmlns:xlink="http://www.w3.org/1999/xlink">
    <!-- Generator: Sketch 50.2 (55047) - http://www.bohemiancoding.com/sketch -->
    <title>linkedin</title>
    <desc>Created with Sketch.</desc>
    <defs></defs>
    <g id="Symbols" stroke="none" stroke-width="1" fill="none" fill-rule="evenodd">
        <g id="assets/images/social/" transform="translate(-88.000000, 0.000000)" fill="#000000">
            <path d="M89.5,0 L110.5,0 C111.328427,-1.52179594e-16 112,0.671572875 112,1.5 L112,22.5 C112,23.3284271 111.328427,24 110.5,24 L89.5,24 C88.6715729,24 88,23.3284271 88,22.5 L88,1.5 C88,0.671572875 88.6715729,1.52179594e-16 89.5,0 Z M96.9583333,17.3333333 L96.9583333,10.2083333 L94.6666667,10.2083333 L94.6666667,17.3333333 L96.9583333,17.3333333 Z M95.8916667,9.125 C96.6541667,9.125 97.1291667,8.57916667 97.1291667,7.89583333 C97.1125,7.19583333 96.6541667,6.66666667 95.9041667,6.66666667 C95.1541667,6.66666667 94.6666667,7.2 94.6666667,7.89583333 C94.6666667,8.57916667 95.1416667,9.125 95.875,9.125 L95.8916667,9.125 Z M105.333333,17.3333333 L105.333333,13.1708333 C105.333333,11.0333333 104.195833,10.0416667 102.691667,10.0416667 C101.479167,10.0416667 100.958333,10.725 100.625,11.2 L100.625,10.2083333 L98.3333333,10.2083333 L98.3333333,17.3333333 L100.625,17.3333333 L100.625,13.275 C100.625,13.0666667 100.641667,12.8625 100.704167,12.7125 C100.870833,12.2958333 101.245833,11.8666667 101.879167,11.8666667 C102.708333,11.8666667 103.041667,12.5041667 103.041667,13.4375 L103.041667,17.3333333 L105.333333,17.3333333 Z" id="linkedin"></path>
        </g>
    </g>
</svg>