<?xml version="1.0" encoding="UTF-8"?>
<svg width="28px" height="48px" viewBox="0 0 28 48" version="1.1" xmlns="http://www.w3.org/2000/svg" xmlns:xlink="http://www.w3.org/1999/xlink">
    <!-- Generator: Sketch 50.2 (55047) - http://www.bohemiancoding.com/sketch -->
    <title>Medal_earned</title>
    <desc>Created with Sketch.</desc>
    <defs></defs>
    <g id="All-final-pages" stroke="none" stroke-width="1" fill="none" fill-rule="evenodd">
        <g id="Profile" transform="translate(-457.000000, -375.000000)" fill-rule="nonzero">
            <g id="Stacked-Group" transform="translate(135.000000, 354.000000)">
                <g id="Group-14-Copy-2">
                    <g id="Medal_earned" transform="translate(322.000000, 21.000000)">
                        <path d="M15.1135632,20.1 L15.1135632,18.3 L19.0786207,18.3 C19.6733793,18.3 20.0698851,17.9 20.0698851,17.3 L20.0698851,13.6 L27.8017471,1.6 C28,1.3 28,0.9 27.8017471,0.6 C27.7026207,0.2 27.4052414,0 27.0087356,0 L19.0786207,0 C18.7812414,0 18.3847356,0.2 18.2856092,0.5 L14.1222989,6.9 L10.0581149,0.5 C9.85986207,0.2 9.46335632,0 9.16597701,0 L1.23586207,0 C0.839356322,0 0.541977011,0.2 0.343724138,0.5 C0.145471264,0.8 0.145471264,1.2 0.343724138,1.5 L8.07558621,13.5 L8.07558621,17.2 C8.07558621,17.8 8.47209195,18.2 9.06685057,18.2 L13.031908,18.2 L13.031908,20 C5.79567816,20.5 0.145471264,26.6 0.145471264,33.9 C0.145471264,41.6 6.39043678,47.9 14.0231724,47.9 C21.655908,47.9 27.9008736,41.6 27.9008736,33.9 C28,26.6 22.3497931,20.6 15.1135632,20.1 Z M19.5742529,2 L25.1253333,2 L18.4838621,12.2 L12.9327816,12.2 L19.5742529,2 Z M3.02013793,2 L8.57121839,2 L12.8336552,8.7 L10.5537471,12.2 L9.6616092,12.2 L3.02013793,2 Z M10.1572414,16.2 L10.1572414,14.2 L11.1485057,14.2 L18.0873563,14.2 L18.0873563,16.2 L10.1572414,16.2 Z" id="Shape" fill="#000000"></path>
                        <path d="M20.879223,32.4442978 C20.8060397,32.1461038 20.5864901,31.9970068 20.2937572,31.9224583 L16.4150464,31.3260703 L14.658649,27.7477425 C14.5122826,27.524097 14.2927329,27.375 14,27.375 C13.7072671,27.375 13.4877174,27.524097 13.341351,27.822291 L11.5849536,31.4006188 L7.70624283,31.9970068 C7.41350993,32.0715553 7.19396026,32.2206523 7.12077704,32.5188463 C7.04759382,32.8170403 7.12077704,33.1152343 7.34032671,33.2643313 L10.1212892,36.0226257 L9.46264018,39.973696 C9.38945695,40.27189 9.5358234,40.570084 9.75537307,40.719181 C9.97492274,40.868278 10.2676556,40.9428265 10.5603885,40.7937295 L14,38.930017 L17.4396115,40.7937295 C17.5127947,40.868278 17.951894,40.9428265 18.2446269,40.719181 C18.4641766,40.570084 18.610543,40.27189 18.5373598,39.973696 L17.8787108,36.0226257 L20.6596733,33.2643313 C20.879223,33.0406858 20.9524062,32.7424918 20.879223,32.4442978 Z M16.5614128,35.2025922 C16.4150464,35.3516892 16.3418631,35.6498832 16.3418631,35.8735287 L16.8541457,38.7063716 L14.3659161,37.3644986 C14.1463664,37.2154016 13.9268168,37.2154016 13.7072671,37.3644986 L11.2190375,38.7063716 L11.7313201,35.8735287 C11.8045033,35.6498832 11.6581369,35.3516892 11.5117704,35.2025922 L9.46264018,33.1897828 L12.2436026,32.7424918 C12.4631523,32.7424918 12.682702,32.5188463 12.8290684,32.3697493 L14.0731832,29.8351004 L15.317298,32.3697493 C15.3904812,32.5933948 15.6100309,32.7424918 15.9027638,32.7424918 L18.6837263,33.1897828 L16.5614128,35.2025922 Z" id="Shape" fill="#FFFFFF"></path>
                    </g>
                </g>
            </g>
        </g>
    </g>
</svg>