<?xml version="1.0" encoding="UTF-8"?>
<svg width="19px" height="18px" viewBox="0 0 19 18" version="1.1" xmlns="http://www.w3.org/2000/svg" xmlns:xlink="http://www.w3.org/1999/xlink">
    <!-- Generator: Sketch 50.2 (55047) - http://www.bohemiancoding.com/sketch -->
    <title>Quiz</title>
    <desc>Created with Sketch.</desc>
    <defs></defs>
    <g id="Home-page" stroke="none" stroke-width="1" fill="none" fill-rule="evenodd" opacity="0.5">
        <g id="Home" transform="translate(-1014.000000, -47.000000)" fill-rule="nonzero">
            <g id="Group-32" transform="translate(120.000000, 30.000000)">
                <g id="Stacked-Group-3" transform="translate(711.000000, 17.000000)">
                    <g id="Group-31" transform="translate(184.000000, 0.000000)">
                        <g id="Quiz" transform="translate(0.000000, 1.000000)">
                            <path d="M10.5105102,5.90821053 L7.66214286,8.37052632 L6.54846939,7.16463158 C6.27121713,6.8850058 5.8156997,6.86872189 5.51801818,7.12779484 C5.22033667,7.38686779 5.1873819,7.82827026 5.44346939,8.12631579 L7.54418367,10.4016842 L11.4958163,6.98273684 C11.7874892,6.71498383 11.8071545,6.27063862 11.5402127,5.97958118 C11.2732709,5.68852374 10.8163984,5.65616428 10.5087755,5.90652632 L10.5105102,5.90821053 Z" id="Shape" fill="#000000"></path>
                            <path d="M15.8811224,5.58652632 C15.6139796,4.78989474 15.8811224,3.73389474 15.3780612,3.06021053 C14.875,2.38652632 13.7509184,2.304 13.0605102,1.81726316 C12.370102,1.33052632 11.9468367,0.323368421 11.1280612,0.0656842105 C10.3353061,-0.183578947 9.3777551,0.384 8.5,0.384 C7.6222449,0.384 6.66469388,-0.183578947 5.87193878,0.0656842105 C5.05316327,0.323368421 4.62295918,1.34736842 3.9394898,1.82063158 C3.25602041,2.29389474 2.125,2.39494737 1.62367347,3.06526316 C1.12234694,3.73557895 1.3877551,4.79157895 1.11887755,5.58652632 C0.867346939,6.35621053 0,7.06357895 0,7.91578947 C0,8.768 0.867346939,9.47536842 1.11887755,10.2450526 C1.38602041,11.0416842 1.11887755,12.0976842 1.62193878,12.7713684 C2.125,13.4450526 3.24908163,13.5275789 3.9394898,14.0143158 C4.62989796,14.5010526 5.05142857,15.5115789 5.87193878,15.7709474 C6.66295918,16.0202105 7.6222449,15.4526316 8.5,15.4526316 C9.3777551,15.4526316 10.3353061,16.0202105 11.1280612,15.7709474 C11.9485714,15.5115789 12.3787755,14.4976842 13.0605102,14.0143158 C13.7422449,13.5309474 14.875,13.44 15.3780612,12.7713684 C15.8811224,12.1027368 15.6157143,11.0450526 15.8811224,10.2450526 C16.1326531,9.47536842 17,8.768 17,7.91578947 C17,7.06357895 16.1326531,6.35621053 15.8811224,5.58652632 Z M8.5,13.1671579 C5.51281577,13.1671579 3.09122449,10.8160402 3.09122449,7.91578947 C3.09122449,5.01553878 5.51281577,2.66442105 8.5,2.66442105 C11.4871842,2.66442105 13.9087755,5.01553878 13.9087755,7.91578947 C13.9087755,9.30853897 13.338924,10.6442451 12.3245818,11.6290677 C11.3102397,12.6138903 9.93449646,13.1671579 8.5,13.1671579 Z" id="Shape" stroke="#000000"></path>
                        </g>
                    </g>
                </g>
            </g>
        </g>
    </g>
</svg>