<?xml version="1.0" encoding="UTF-8"?>
<svg width="24px" height="24px" viewBox="0 0 24 24" version="1.1" xmlns="http://www.w3.org/2000/svg" xmlns:xlink="http://www.w3.org/1999/xlink">
    <!-- Generator: Sketch 50.2 (55047) - http://www.bohemiancoding.com/sketch -->
    <title>twitter</title>
    <desc>Created with Sketch.</desc>
    <defs></defs>
    <g id="Symbols" stroke="none" stroke-width="1" fill="none" fill-rule="evenodd">
        <g id="assets/images/social/" transform="translate(-44.000000, 0.000000)" fill="#000000">
            <path d="M45.5,0 L66.5,0 C67.3284271,-1.52179594e-16 68,0.671572875 68,1.5 L68,22.5 C68,23.3284271 67.3284271,24 66.5,24 L45.5,24 C44.6715729,24 44,23.3284271 44,22.5 L44,1.5 C44,0.671572875 44.6715729,1.52179594e-16 45.5,0 Z M61.97463,8.18489583 C61.5331924,8.38541667 61.0613108,8.52083333 60.5640592,8.58333333 C61.0714588,8.27083333 61.4621564,7.77604167 61.6448203,7.1875 C61.1704017,7.4765625 60.6452431,7.6875 60.0845666,7.79947917 C59.635518,7.30729167 58.9961945,7 58.2909091,7 C56.9336152,7 55.8350951,8.13020833 55.8350951,9.5234375 C55.8350951,9.72135417 55.8553911,9.9140625 55.8985201,10.0989583 C53.8562368,9.99479167 52.0448203,8.98958333 50.8346723,7.4609375 C50.6241015,7.83333333 50.5023256,8.26822917 50.5023256,8.72916667 C50.5023256,9.60416667 50.9386892,10.3776042 51.5983087,10.8307292 C51.192389,10.8203125 50.8118393,10.7057292 50.4820296,10.515625 L50.4820296,10.546875 C50.4820296,11.7708333 51.3293869,12.7890625 52.453277,13.0208333 C52.2477801,13.078125 52.0295983,13.109375 51.8063425,13.109375 C51.6490486,13.109375 51.4942918,13.09375 51.3446089,13.0625 C51.6566596,14.0651042 52.5649049,14.7942708 53.640592,14.8151042 C52.8008457,15.4921875 51.7403805,15.8958333 50.5885835,15.8958333 C50.3906977,15.8958333 50.1953488,15.8828125 50.002537,15.859375 C51.0858351,16.5833333 52.377167,17 53.7623679,17 C58.2858351,17 60.756871,13.1536458 60.756871,9.81770833 C60.756871,9.70833333 60.754334,9.59895833 60.74926,9.4921875 C61.2287526,9.13541667 61.6448203,8.69270833 61.97463,8.18489583 Z" id="twitter"></path>
        </g>
    </g>
</svg>