<?xml version="1.0" encoding="UTF-8"?>
<svg width="32px" height="32px" viewBox="0 0 32 32" version="1.1" xmlns="http://www.w3.org/2000/svg" xmlns:xlink="http://www.w3.org/1999/xlink">
    <!-- Generator: Sketch 50.2 (55047) - http://www.bohemiancoding.com/sketch -->
    <title>user</title>
    <desc>Created with Sketch.</desc>
    <defs></defs>
    <g id="Symbols" stroke="none" stroke-width="1" fill="none" fill-rule="evenodd">
        <g id="icon/-user" transform="translate(-6.000000, -6.000000)" fill="#000000" fill-rule="nonzero">
            <g id="md-contact" transform="translate(6.000000, 6.000000)">
                <path d="M16,0 C7.2,0 0,7.2 0,16 C0,24.8 7.2,32 16,32 C24.8,32 32,24.8 32,16 C32,7.2 24.8,0 16,0 Z M16,4.8 C18.6384615,4.8 20.8,6.96153846 20.8,9.6 C20.8,12.2384615 18.6384615,14.4 16,14.4 C13.3615385,14.4 11.2,12.2384615 11.2,9.6 C11.2,6.96153846 13.3615385,4.8 16,4.8 Z M16,27.9076923 C12,27.9076923 8.47692308,25.8307692 6.4,22.7846154 C6.47692308,19.5846154 12.8,17.8230769 16,17.8230769 C19.2,17.8230769 25.5230769,19.5846154 25.6,22.7846154 C23.5230769,25.8230769 20,27.9076923 16,27.9076923 Z" id="user"></path>
            </g>
        </g>
    </g>
</svg>